<?xml version="1.0" encoding="UTF-8" standalone="no"?>
<!-- Generator: Adobe Illustrator 21.0.2, SVG Export Plug-In . SVG Version: 6.00 Build 0)  -->

<svg
   xmlns:dc="http://purl.org/dc/elements/1.1/"
   xmlns:cc="http://creativecommons.org/ns#"
   xmlns:rdf="http://www.w3.org/1999/02/22-rdf-syntax-ns#"
   xmlns:svg="http://www.w3.org/2000/svg"
   xmlns="http://www.w3.org/2000/svg"
   xmlns:sodipodi="http://sodipodi.sourceforge.net/DTD/sodipodi-0.dtd"
   xmlns:inkscape="http://www.inkscape.org/namespaces/inkscape"
   version="1.1"
   id="Layer_3"
   x="0px"
   y="0px"
   viewBox="0 0 256 256"
   xml:space="preserve"
   sodipodi:docname="cm_640px.svg"
   width="256"
   height="256"
   inkscape:version="0.92.1 r15371"><metadata
     id="metadata31"><rdf:RDF><cc:Work
         rdf:about=""><dc:format>image/svg+xml</dc:format><dc:type
           rdf:resource="http://purl.org/dc/dcmitype/StillImage" /><dc:title></dc:title></cc:Work></rdf:RDF></metadata><defs
     id="defs29" /><sodipodi:namedview
     pagecolor="#ffffff"
     bordercolor="#666666"
     borderopacity="1"
     objecttolerance="10"
     gridtolerance="10"
     guidetolerance="10"
     inkscape:pageopacity="0"
     inkscape:pageshadow="2"
     inkscape:window-width="1920"
     inkscape:window-height="1137"
     id="namedview27"
     showgrid="false"
     inkscape:zoom="1.84375"
     inkscape:cx="32.044594"
     inkscape:cy="133.57956"
     inkscape:window-x="-8"
     inkscape:window-y="-8"
     inkscape:window-maximized="1"
     inkscape:current-layer="Layer_3"
     inkscape:snap-bbox="true"
     inkscape:bbox-paths="true"
     inkscape:snap-page="true"
     inkscape:bbox-nodes="true"
     inkscape:snap-bbox-edge-midpoints="true"
     inkscape:snap-bbox-midpoints="true"
     inkscape:snap-global="false" /><style
     type="text/css"
     id="style2">
	.st0{fill:#181818;}
	.st1{fill:#FFFFFF;}
	.st2{fill:#ED2024;}
</style><rect
     class="st0"
     width="255.9857"
     height="255.9857"
     id="rect4"
     x="0.01430123"
     y="-5.5999999e-006"
     style="fill:#181818;stroke-width:7.9995532;stroke:none" /><g
     id="g4531"
     transform="matrix(0.96938677,0,0,0.96938677,7.7647361,2.8841034)"><path
       id="path6"
       d="m 233.60156,3.1992188 c -7.99955,0 -15.19862,8.7992752 -18.39844,16.7988282 -6.39964,18.398972 -5.5999,40.797992 -4,60.796875 v 1.599609 c 0.79996,16.799062 -3.20102,23.999539 -14.40039,36.798829 l -4,4.79883 c -5.59969,6.39964 -11.198,12.79988 -17.59765,17.59961 -4.79973,3.99978 -8.79987,7.19944 -13.59961,11.19922 -11.19937,9.59946 -22.39911,18.4 -34.39844,25.5996 -6.39965,3.19982 -12.79958,7.19945 -19.19922,11.19922 -18.398972,11.19938 -36.798291,21.59894 -55.197263,30.39844 -9.599464,3.99978 -19.198237,3.1984 -29.597656,2.39844 -7.733444,-0.70304 -15.4657752,-1.4026 -23.19921912,0.0664 v 33.51172 C 13.822261,255.85115 26.978409,254.29678 41.611328,251.98633 h 0.800781 c 4.799732,-0.79996 9.598706,-1.60043 14.398438,-2.40039 3.999777,0 8.001049,-0.79965 12.800781,-1.59961 8.799509,-0.79995 11.998796,-1.60051 18.398438,3.19922 0.799956,0.79996 0.799654,0.79966 1.599609,1.59961 1.599911,2.39987 3.200268,4 8,4 3.999785,0 10.398965,-3.19944 12.798825,-7.19922 3.19983,-5.59969 1.59991,-8.79936 0,-11.19922 -0.79995,-1.59991 -0.80078,-2.39927 -0.80078,-3.19922 0,-7.99956 9.60005,-14.39949 17.59961,-19.19922 l 9.59961,-7.19922 c 18.39897,-11.99933 37.59773,-23.99977 52.79688,-40.79883 8.79951,-10.39942 16.79927,-20.79784 24.79882,-31.19726 3.19983,-3.19982 5.59901,-7.19945 8.79883,-11.19922 1.59991,-2.39987 3.9997,-4.00053 5.59961,-6.40039 5.59969,-6.39965 12,-13.59975 12,-23.199219 0,-7.199598 -1.60043,-14.398059 -2.40039,-21.597657 -0.79995,-5.599687 -2.39844,-12.000747 -2.39844,-18.40039 0,-8.799508 1.59984,-15.999096 5.59961,-20.798828 C 242.40152,33.597355 243.20005,31.999175 244,31.199219 246.39987,27.999398 249.60104,23.999553 247.20117,16 243.2014,5.6005806 237.60134,3.1992188 233.60156,3.1992188 Z"
       style="fill:#ffffff;stroke-width:7.9995532"
       inkscape:connector-curvature="0" /><polygon
       transform="matrix(7.9995531,0,0,7.9995531,0.01430123,-5.5999999e-6)"
       style="fill:#ed2024"
       id="polygon8"
       points="20.3,9.2 21.8,10.7 15.5,10.7 17,9.2 17,7 12.5,11.5 17,16.1 17,13.9 15.5,12.3 21.8,12.3 20.3,13.9 20.3,16.1 24.8,11.5 20.3,7 "
       class="st2" /><path
       class="st1"
       d="m 79.209877,107.19401 c -0.799955,-4.79974 -0.799955,-8.799512 -0.799955,-13.599244 0,-5.599687 0.799955,-9.599464 1.59991,-14.399196 L 60.010949,75.995749 c -1.59991,7.199598 -2.399865,13.59924 -2.399865,20.798838 0,3.199821 0,6.399643 0,10.399423 z"
       id="path10"
       inkscape:connector-curvature="0"
       style="fill:#ffffff;stroke-width:7.9995532" /><path
       class="st1"
       d="m 81.609743,139.99217 c 0,-3.99977 0,-7.19959 -0.799955,-11.19937 0,-0.79996 0,-2.39987 0,-3.19982 h -23.99866 c -0.799955,9.59946 -0.799955,19.99888 -0.799955,31.19826 l 26.398525,-2.39987 c -0.799955,-4.79973 -0.799955,-9.59946 -0.799955,-14.3992 z"
       id="path12"
       inkscape:connector-curvature="0"
       style="fill:#ffffff;stroke-width:7.9995532" /><path
       class="st1"
       d="m 36.812245,241.5865 c 2.399866,-1.59991 4.799732,-3.99978 7.199598,-5.59969 5.599687,-3.99978 11.199375,-7.99955 16.799062,-12.79928 L 40.812022,205.58851 c 0,0 0,0.79995 -0.799955,0.79995 -4.799732,4.79974 -11.99933,12.79929 -19.998883,19.19893 z"
       id="path14"
       inkscape:connector-curvature="0"
       style="fill:#ffffff;stroke-width:7.9995532" /><path
       class="st1"
       d="m 64.810681,57.596777 20.798838,4.799732 v -0.799956 c 2.399866,-7.199598 5.599688,-15.199151 9.599464,-19.998882 L 76.810011,25.598564 c -3.199821,4.799732 -6.399642,11.199375 -7.999553,17.599017 l -0.799955,2.399866 c -1.599911,3.999777 -2.399866,7.999553 -3.199822,11.99933 z"
       id="path16"
       inkscape:connector-curvature="0"
       style="fill:#ffffff;stroke-width:7.9995532" /><path
       class="st1"
       d="m 8.0138543,235.98681 c -0.7999553,2.39987 -1.5999106,4.79973 0,7.99955 l 5.5996867,11.99933 4.799732,-1.59991 c 1.599911,-0.79995 3.999777,-0.79995 5.599688,-2.39986 z"
       id="path18"
       inkscape:connector-curvature="0"
       style="fill:#ffffff;stroke-width:7.9995532" /><path
       class="st1"
       d="M 124.00737,3.999771 C 120.80755,0.79994971 116.80778,0.79994971 112.808,2.3998603 c -2.39987,0.7999553 -4.79973,1.5999107 -7.1996,1.5999107 -4.79973,1.5999106 -9.599462,3.9997765 -13.599238,6.399642 l 15.999108,21.598794 c 1.59991,0 2.39986,-0.799956 3.99977,-1.599911 1.59992,-0.799955 3.19983,-1.59991 4.79974,-1.59991 3.99977,-1.599911 8.7995,-3.999777 10.39942,-10.399419 1.59991,-4.799732 0,-10.3994195 -3.19983,-14.399196 z"
       id="path20"
       inkscape:connector-curvature="0"
       style="fill:#ffffff;stroke-width:7.9995532" /><path
       class="st1"
       d="m 57.611084,173.5903 c 0,6.39964 0,9.59946 -4.799732,16.79906 0,0.79995 -0.799956,1.59991 -1.599911,1.59991 l 22.398749,15.9991 c 3.199821,-3.99977 5.599687,-7.19959 7.999553,-11.99932 3.999776,-7.99956 4.799732,-15.19916 3.999776,-23.19871 z"
       id="path22"
       inkscape:connector-curvature="0"
       style="fill:#ffffff;stroke-width:7.9995532" /></g></svg>