<?xml version="1.0" encoding="UTF-8" standalone="no"?>
<!-- Generator: Adobe Illustrator 21.0.2, SVG Export Plug-In . SVG Version: 6.00 Build 0)  -->

<svg
   xmlns:dc="http://purl.org/dc/elements/1.1/"
   xmlns:cc="http://creativecommons.org/ns#"
   xmlns:rdf="http://www.w3.org/1999/02/22-rdf-syntax-ns#"
   xmlns:svg="http://www.w3.org/2000/svg"
   xmlns="http://www.w3.org/2000/svg"
   xmlns:sodipodi="http://sodipodi.sourceforge.net/DTD/sodipodi-0.dtd"
   xmlns:inkscape="http://www.inkscape.org/namespaces/inkscape"
   version="1.1"
   id="Layer_3"
   x="0px"
   y="0px"
   viewBox="0 0 256 256"
   xml:space="preserve"
   sodipodi:docname="cm_icon.svg"
   width="256"
   height="256"
   inkscape:version="0.92.1 r15371"><metadata
     id="metadata31"><rdf:RDF><cc:Work
         rdf:about=""><dc:format>image/svg+xml</dc:format><dc:type
           rdf:resource="http://purl.org/dc/dcmitype/StillImage" /><dc:title></dc:title></cc:Work></rdf:RDF></metadata><defs
     id="defs29" /><sodipodi:namedview
     pagecolor="#ffffff"
     bordercolor="#666666"
     borderopacity="1"
     objecttolerance="10"
     gridtolerance="10"
     guidetolerance="10"
     inkscape:pageopacity="0"
     inkscape:pageshadow="2"
     inkscape:window-width="1920"
     inkscape:window-height="1137"
     id="namedview27"
     showgrid="false"
     inkscape:zoom="1.84375"
     inkscape:cx="124.51917"
     inkscape:cy="133.57956"
     inkscape:window-x="-8"
     inkscape:window-y="-8"
     inkscape:window-maximized="1"
     inkscape:current-layer="Layer_3"
     inkscape:snap-bbox="true"
     inkscape:bbox-paths="true"
     inkscape:snap-page="true"
     inkscape:bbox-nodes="true"
     inkscape:snap-bbox-edge-midpoints="true"
     inkscape:snap-bbox-midpoints="true" /><style
     type="text/css"
     id="style2">
	.st0{fill:#181818;}
	.st1{fill:#FFFFFF;}
	.st2{fill:#ED2024;}
</style><g
     id="g4550"><rect
       style="fill:#181818;stroke-width:7.9995532"
       y="-5.5999999e-006"
       x="0.01430123"
       id="rect4"
       height="255.9857"
       width="255.9857"
       class="st0" /><path
       id="path6"
       d="M 233.60156 3.1992188 C 225.60201 3.1992188 218.40294 11.998494 215.20312 19.998047 C 208.80348 38.397019 209.60322 60.796039 211.20312 80.794922 L 211.20312 82.394531 C 212.00308 99.193593 208.0021 106.39407 196.80273 119.19336 L 192.80273 123.99219 C 187.20304 130.39183 181.60473 136.79207 175.20508 141.5918 C 170.40535 145.59158 166.40521 148.79124 161.60547 152.79102 C 150.4061 162.39048 139.20636 171.19102 127.20703 178.39062 C 120.80738 181.59044 114.40745 185.59007 108.00781 189.58984 C 89.608838 200.78922 71.209519 211.18878 52.810547 219.98828 C 43.211083 223.98806 33.61231 223.18668 23.212891 222.38672 C 15.479447 221.68368 7.7471158 220.98412 0.013671875 222.45312 L 0.013671875 255.96484 C 13.822261 255.85115 26.978409 254.29678 41.611328 251.98633 L 42.412109 251.98633 C 47.211841 251.18637 52.010815 250.3859 56.810547 249.58594 C 60.810324 249.58594 64.811596 248.78629 69.611328 247.98633 C 78.410837 247.18638 81.610124 246.38582 88.009766 251.18555 C 88.809722 251.98551 88.80942 251.98521 89.609375 252.78516 C 91.209286 255.18503 92.809643 256.78516 97.609375 256.78516 C 101.60916 256.78516 108.00834 253.58572 110.4082 249.58594 C 113.60803 243.98625 112.00811 240.78658 110.4082 238.38672 C 109.60825 236.78681 109.60742 235.98745 109.60742 235.1875 C 109.60742 227.18794 119.20747 220.78801 127.20703 215.98828 L 136.80664 208.78906 C 155.20561 196.78973 174.40437 184.78929 189.60352 167.99023 C 198.40303 157.59081 206.40279 147.19239 214.40234 136.79297 C 217.60217 133.59315 220.00135 129.59352 223.20117 125.59375 C 224.80108 123.19388 227.20087 121.59322 228.80078 119.19336 C 234.40047 112.79371 240.80078 105.59361 240.80078 95.994141 C 240.80078 88.794543 239.20035 81.596082 238.40039 74.396484 C 237.60044 68.796797 236.00195 62.395737 236.00195 55.996094 C 236.00195 47.196586 237.60179 39.996998 241.60156 35.197266 C 242.40152 33.597355 243.20005 31.999175 244 31.199219 C 246.39987 27.999398 249.60104 23.999553 247.20117 16 C 243.2014 5.6005806 237.60134 3.1992188 233.60156 3.1992188 z "
       style="fill:#ffffff;stroke-width:7.9995532" /><polygon
       transform="matrix(7.9995531,0,0,7.9995531,0.01430123,-5.5999999e-6)"
       style="fill:#ed2024"
       id="polygon8"
       points="21.8,12.3 20.3,13.9 20.3,16.1 24.8,11.5 20.3,7 20.3,9.2 21.8,10.7 15.5,10.7 17,9.2 17,7 12.5,11.5 17,16.1 17,13.9 15.5,12.3 "
       class="st2" /><path
       class="st1"
       d="m 79.209877,107.19401 c -0.799955,-4.79974 -0.799955,-8.799512 -0.799955,-13.599244 0,-5.599687 0.799955,-9.599464 1.59991,-14.399196 L 60.010949,75.995749 c -1.59991,7.199598 -2.399865,13.59924 -2.399865,20.798838 0,3.199821 0,6.399643 0,10.399423 z"
       id="path10"
       inkscape:connector-curvature="0"
       style="fill:#ffffff;stroke-width:7.9995532" /><path
       class="st1"
       d="m 81.609743,139.99217 c 0,-3.99977 0,-7.19959 -0.799955,-11.19937 0,-0.79996 0,-2.39987 0,-3.19982 h -23.99866 c -0.799955,9.59946 -0.799955,19.99888 -0.799955,31.19826 l 26.398525,-2.39987 c -0.799955,-4.79973 -0.799955,-9.59946 -0.799955,-14.3992 z"
       id="path12"
       inkscape:connector-curvature="0"
       style="fill:#ffffff;stroke-width:7.9995532" /><path
       class="st1"
       d="m 36.812245,241.5865 c 2.399866,-1.59991 4.799732,-3.99978 7.199598,-5.59969 5.599687,-3.99978 11.199375,-7.99955 16.799062,-12.79928 L 40.812022,205.58851 c 0,0 0,0.79995 -0.799955,0.79995 -4.799732,4.79974 -11.99933,12.79929 -19.998883,19.19893 z"
       id="path14"
       inkscape:connector-curvature="0"
       style="fill:#ffffff;stroke-width:7.9995532" /><path
       class="st1"
       d="m 64.810681,57.596777 20.798838,4.799732 v -0.799956 c 2.399866,-7.199598 5.599688,-15.199151 9.599464,-19.998882 L 76.810011,25.598564 c -3.199821,4.799732 -6.399642,11.199375 -7.999553,17.599017 l -0.799955,2.399866 c -1.599911,3.999777 -2.399866,7.999553 -3.199822,11.99933 z"
       id="path16"
       inkscape:connector-curvature="0"
       style="fill:#ffffff;stroke-width:7.9995532" /><path
       class="st1"
       d="m 8.0138543,235.98681 c -0.7999553,2.39987 -1.5999106,4.79973 0,7.99955 l 5.5996867,11.99933 4.799732,-1.59991 c 1.599911,-0.79995 3.999777,-0.79995 5.599688,-2.39986 z"
       id="path18"
       inkscape:connector-curvature="0"
       style="fill:#ffffff;stroke-width:7.9995532" /><path
       class="st1"
       d="M 124.00737,3.999771 C 120.80755,0.79994971 116.80778,0.79994971 112.808,2.3998603 c -2.39987,0.7999553 -4.79973,1.5999107 -7.1996,1.5999107 -4.79973,1.5999106 -9.599462,3.9997765 -13.599238,6.399642 l 15.999108,21.598794 c 1.59991,0 2.39986,-0.799956 3.99977,-1.599911 1.59992,-0.799955 3.19983,-1.59991 4.79974,-1.59991 3.99977,-1.599911 8.7995,-3.999777 10.39942,-10.399419 1.59991,-4.799732 0,-10.3994195 -3.19983,-14.399196 z"
       id="path20"
       inkscape:connector-curvature="0"
       style="fill:#ffffff;stroke-width:7.9995532" /><path
       class="st1"
       d="m 57.611084,173.5903 c 0,6.39964 0,9.59946 -4.799732,16.79906 0,0.79995 -0.799956,1.59991 -1.599911,1.59991 l 22.398749,15.9991 c 3.199821,-3.99977 5.599687,-7.19959 7.999553,-11.99932 3.999776,-7.99956 4.799732,-15.19916 3.999776,-23.19871 z"
       id="path22"
       inkscape:connector-curvature="0"
       style="fill:#ffffff;stroke-width:7.9995532" /></g></svg>