<?xml version="1.0" encoding="UTF-8" standalone="no"?>
<svg
   xmlns:dc="http://purl.org/dc/elements/1.1/"
   xmlns:cc="http://creativecommons.org/ns#"
   xmlns:rdf="http://www.w3.org/1999/02/22-rdf-syntax-ns#"
   xmlns:svg="http://www.w3.org/2000/svg"
   xmlns="http://www.w3.org/2000/svg"
   xml:space="preserve"
   style="enable-background:new 0 0 32 32;"
   viewBox="0 0 32 32"
   y="0px"
   x="0px"
   id="Layer_3"
   version="1.1"><metadata
     id="metadata17"><rdf:RDF><cc:Work
         rdf:about=""><dc:format>image/svg+xml</dc:format><dc:type
           rdf:resource="http://purl.org/dc/dcmitype/StillImage" /><dc:title></dc:title></cc:Work></rdf:RDF></metadata><defs
     id="defs15" /><style
     id="style2"
     type="text/css">
	.st0{fill:#FFFFFF;}
	.st1{fill:#ED1C24;}
	.st2{fill:#6D6E71;}
</style><rect
     id="rect4"
     height="27.7"
     width="27.7"
     class="st0"
     y="2.2"
     x="2.2" /><path
     id="path6"
     d="M7.7,27.4l-0.6-1.1c-0.2-0.5,0.1-0.9,0.3-1.1l0.1-0.1c1-0.5,2-1.6,2.5-2.2c0.4-0.5,0.8-0.9,1.1-1.4  c0.5-0.8,0.5-1,0.4-2.1c-0.1-1.3,0-2.6,0-3.9c0.1-0.8,0.1-1.5,0.1-2.3c0-1.6,0.4-3.1,0.9-4.6l0.1-0.3C13.2,6.7,14.2,5.7,16,5  c0.2-0.1,0.4-0.1,0.6-0.2c0.3-0.1,0.7-0.1,1,0.2c0.3,0.3,0.5,0.8,0.3,1.3c-0.2,0.5-0.6,0.8-0.9,0.9c-0.1,0.1-0.3,0.1-0.4,0.2  c-0.5,0.2-1,0.4-1.4,0.8c-0.4,0.4-0.7,1.3-1,1.9l-0.1,0.2c-0.4,1-0.5,1.6-0.6,2.6c0,0.6,0.1,1.3,0.1,1.9c0,0.4,0.1,0.8,0.1,1.2  c0,0.3,0,0.7,0,1c0,0.7,0,1.3,0.2,2c0.2,1.1,0.4,2.1-0.2,3.1c-0.3,0.7-0.8,1.2-1.3,1.8c-0.6,0.7-1.3,1.2-2,1.7  c-0.6,0.4-1.1,0.8-1.6,1.3c-0.2,0.3-0.5,0.3-0.8,0.4L7.7,27.4z"
     class="st1" /><path
     id="path8"
     d="M5.3,24.6c0.8-0.2,1.6-0.1,2.3-0.1c0.9,0.1,1.8,0.1,2.6-0.2c1.7-0.7,3.3-1.7,4.9-2.7c0.6-0.3,1.2-0.7,1.7-1  c1.1-0.6,2-1.4,3.1-2.3c0.4-0.3,0.8-0.7,1.2-1c0.6-0.5,1-1,1.5-1.6l0.4-0.4c1-1.1,1.4-1.8,1.3-3.3l0-0.2c-0.1-1.8-0.2-3.8,0.4-5.4  C24.9,5.7,25.5,5,26.2,5c0,0,0,0,0,0c0.4,0,0.9,0.2,1.2,1.1c0.2,0.7-0.1,1.1-0.3,1.4c-0.1,0.1-0.2,0.2-0.2,0.4  c-0.3,0.5-0.4,1.2-0.4,1.9c0,0.5,0.1,1.1,0.2,1.7c0.1,0.6,0.2,1.3,0.2,1.9c0,0.9-0.6,1.5-1.1,2.1c-0.2,0.2-0.3,0.4-0.5,0.6  c-0.3,0.3-0.5,0.7-0.8,1c-0.7,0.9-1.4,1.9-2.2,2.8c-1.4,1.5-3.1,2.6-4.7,3.6L16.8,24c-0.7,0.5-1.5,1-1.6,1.7c0,0.1,0,0.1,0.1,0.3  c0.1,0.2,0.3,0.5,0,1c-0.2,0.4-0.8,0.6-1.2,0.6c0,0,0,0,0,0c-0.4,0-0.6-0.2-0.7-0.3c0,0-0.1-0.1-0.2-0.2c-0.6-0.4-0.8-0.4-1.6-0.3  c-0.4,0.1-0.8,0.1-1.1,0.2c-0.4,0.1-0.9,0.1-1.3,0.2l-0.1,0c-1.3,0.2-2.5,0.4-3.8,0.4" /><polygon
     id="polygon10"
     points="20.3,7.9 19.7,8.5 22.2,10.8 15.8,10.8 18.2,8.5 17.6,7.9 13.7,11.5 17.6,15.1 18.2,14.4 15.8,12.2   22.2,12.2 19.7,14.4 20.3,15.1 24.2,11.5 "
     class="st2" /></svg>