<?xml version="1.0" encoding="utf-8"?>
<!-- Generator: Adobe Illustrator 24.0.1, SVG Export Plug-In . SVG Version: 6.00 Build 0)  -->
<svg version="1.1"
	 id="Layer_3" inkscape:version="0.92.1 r15371" sodipodi:docname="cm_640px.svg" xmlns:cc="http://creativecommons.org/ns#" xmlns:dc="http://purl.org/dc/elements/1.1/" xmlns:inkscape="http://www.inkscape.org/namespaces/inkscape" xmlns:rdf="http://www.w3.org/1999/02/22-rdf-syntax-ns#" xmlns:sodipodi="http://sodipodi.sourceforge.net/DTD/sodipodi-0.dtd" xmlns:svg="http://www.w3.org/2000/svg"
	 xmlns="http://www.w3.org/2000/svg" xmlns:xlink="http://www.w3.org/1999/xlink" x="0px" y="0px" viewBox="0 0 170.1 170.1"
	 style="enable-background:new 0 0 170.1 170.1;" xml:space="preserve">
<style type="text/css">
	.st0{fill:#181818;}
	.st1{fill:#FFFFFF;}
	.st2{fill:#ED2024;}
</style>
<sodipodi:namedview  bordercolor="#666666" borderopacity="1" gridtolerance="10" guidetolerance="10" id="namedview27" inkscape:bbox-nodes="true" inkscape:bbox-paths="true" inkscape:current-layer="Layer_3" inkscape:cx="32.044594" inkscape:cy="133.57956" inkscape:pageopacity="0" inkscape:pageshadow="2" inkscape:snap-bbox="true" inkscape:snap-bbox-edge-midpoints="true" inkscape:snap-bbox-midpoints="true" inkscape:snap-global="false" inkscape:snap-page="true" inkscape:window-height="1137" inkscape:window-maximized="1" inkscape:window-width="1920" inkscape:window-x="-8" inkscape:window-y="-8" inkscape:zoom="1.84375" objecttolerance="10" pagecolor="#ffffff" showgrid="false">
	</sodipodi:namedview>
<rect id="rect4" x="29.5" y="28.3" class="st0" width="111" height="113.4"/>
<g id="g4531" transform="matrix(0.96938677,0,0,0.96938677,7.7647361,2.8841034)">
	<path id="path6" inkscape:connector-curvature="0" class="st1" d="M124.5,33.3c-3.3,0-6.2,3.6-7.5,6.9c-2.6,7.5-2.3,16.7-1.6,24.9
		v0.7c0.3,6.9-1.3,9.8-5.9,15.1l-1.6,2c-2.3,2.6-4.6,5.2-7.2,7.2c-2,1.6-3.6,2.9-5.6,4.6c-4.6,3.9-9.2,7.5-14.1,10.5
		c-2.6,1.3-5.2,2.9-7.9,4.6c-7.5,4.6-15.1,8.8-22.6,12.4c-3.9,1.6-7.9,1.3-12.1,1c-3.2-0.3-6.3-0.6-9.5,0v13.7c5.6,0,11-0.7,17-1.6
		h0.3c2-0.3,3.9-0.7,5.9-1c1.6,0,3.3-0.3,5.2-0.7c3.6-0.3,4.9-0.7,7.5,1.3c0.3,0.3,0.3,0.3,0.7,0.7c0.7,1,1.3,1.6,3.3,1.6
		c1.6,0,4.3-1.3,5.2-2.9c1.3-2.3,0.7-3.6,0-4.6c-0.3-0.7-0.3-1-0.3-1.3c0-3.3,3.9-5.9,7.2-7.9l3.9-2.9c7.5-4.9,15.4-9.8,21.6-16.7
		c3.6-4.3,6.9-8.5,10.1-12.8c1.3-1.3,2.3-2.9,3.6-4.6c0.7-1,1.6-1.6,2.3-2.6c2.3-2.6,4.9-5.6,4.9-9.5c0-2.9-0.7-5.9-1-8.8
		c-0.3-2.3-1-4.9-1-7.5c0-3.6,0.7-6.5,2.3-8.5c0.3-0.7,0.7-1.3,1-1.6c1-1.3,2.3-2.9,1.3-6.2C128.5,34.3,126.2,33.3,124.5,33.3z"/>
	<polygon id="polygon8" class="st2" points="95.4,62.1 100.3,67 79.7,67 84.6,62.1 84.6,54.9 69.9,69.6 84.6,84.6 84.6,77.4 
		79.7,72.2 100.3,72.2 95.4,77.4 95.4,84.6 110.1,69.6 95.4,54.9 	"/>
	<path id="path10" inkscape:connector-curvature="0" class="st1" d="M61.4,75.8c-0.3-2-0.3-3.6-0.3-5.6c0-2.3,0.3-3.9,0.7-5.9
		L53.5,63c-0.7,2.9-1,5.6-1,8.5c0,1.3,0,2.6,0,4.3H61.4z"/>
	<path id="path12" inkscape:connector-curvature="0" class="st1" d="M62.4,89.2c0-1.6,0-2.9-0.3-4.6c0-0.3,0-1,0-1.3h-9.8
		c-0.3,3.9-0.3,8.2-0.3,12.8l10.8-1C62.4,93.1,62.4,91.2,62.4,89.2z"/>
	<path id="path14" inkscape:connector-curvature="0" class="st1" d="M44,130.8c1-0.7,2-1.6,2.9-2.3c2.3-1.6,4.6-3.3,6.9-5.2
		l-8.2-7.2c0,0,0,0.3-0.3,0.3c-2,2-4.9,5.2-8.2,7.9L44,130.8z"/>
	<path id="path16" inkscape:connector-curvature="0" class="st1" d="M55.5,55.5l8.5,2v-0.3c1-2.9,2.3-6.2,3.9-8.2l-7.5-6.5
		c-1.3,2-2.6,4.6-3.3,7.2l-0.3,1C56.1,52.2,55.8,53.9,55.5,55.5z"/>
	<path id="path18" inkscape:connector-curvature="0" class="st1" d="M32.3,128.5c-0.3,1-0.7,2,0,3.3l2.3,4.9l2-0.7
		c0.7-0.3,1.6-0.3,2.3-1L32.3,128.5z"/>
	<path id="path20" inkscape:connector-curvature="0" class="st1" d="M79.7,33.6c-1.3-1.3-2.9-1.3-4.6-0.7c-1,0.3-2,0.7-2.9,0.7
		c-2,0.7-3.9,1.6-5.6,2.6l6.5,8.8c0.7,0,1-0.3,1.6-0.7c0.7-0.3,1.3-0.7,2-0.7c1.6-0.7,3.6-1.6,4.3-4.3C81.7,37.5,81,35.2,79.7,33.6z
		"/>
	<path id="path22" inkscape:connector-curvature="0" class="st1" d="M52.5,103c0,2.6,0,3.9-2,6.9c0,0.3-0.3,0.7-0.7,0.7l9.2,6.5
		c1.3-1.6,2.3-2.9,3.3-4.9c1.6-3.3,2-6.2,1.6-9.5L52.5,103z"/>
</g>
</svg>
