<?xml version="1.0" encoding="UTF-8" standalone="no"?>
<!-- Generator: Adobe Illustrator 16.0.0, SVG Export Plug-In . SVG Version: 6.00 Build 0)  -->

<svg
   xmlns:dc="http://purl.org/dc/elements/1.1/"
   xmlns:cc="http://creativecommons.org/ns#"
   xmlns:rdf="http://www.w3.org/1999/02/22-rdf-syntax-ns#"
   xmlns:svg="http://www.w3.org/2000/svg"
   xmlns="http://www.w3.org/2000/svg"
   xmlns:sodipodi="http://sodipodi.sourceforge.net/DTD/sodipodi-0.dtd"
   xmlns:inkscape="http://www.inkscape.org/namespaces/inkscape"
   version="1.1"
   id="Capa_1"
   x="0px"
   y="0px"
   width="32"
   height="32"
   viewBox="0 0 32 32"
   xml:space="preserve"
   sodipodi:docname="undo.svg"
   inkscape:version="0.92.1 r15371"><metadata
     id="metadata51"><rdf:RDF><cc:Work
         rdf:about=""><dc:format>image/svg+xml</dc:format><dc:type
           rdf:resource="http://purl.org/dc/dcmitype/StillImage" /><dc:title /></cc:Work></rdf:RDF></metadata><defs
     id="defs49" /><sodipodi:namedview
     pagecolor="#ffffff"
     bordercolor="#666666"
     borderopacity="1"
     objecttolerance="10"
     gridtolerance="10"
     guidetolerance="10"
     inkscape:pageopacity="0"
     inkscape:pageshadow="2"
     inkscape:window-width="1920"
     inkscape:window-height="1001"
     id="namedview47"
     showgrid="false"
     inkscape:snap-bbox="true"
     inkscape:bbox-paths="true"
     inkscape:bbox-nodes="true"
     inkscape:snap-bbox-edge-midpoints="true"
     inkscape:snap-bbox-midpoints="true"
     inkscape:object-paths="true"
     inkscape:snap-intersection-paths="true"
     inkscape:snap-midpoints="true"
     inkscape:snap-smooth-nodes="true"
     inkscape:zoom="11.313709"
     inkscape:cx="1.787423"
     inkscape:cy="18.835155"
     inkscape:window-x="-9"
     inkscape:window-y="-9"
     inkscape:window-maximized="1"
     inkscape:current-layer="Capa_1"
     showguides="true"
     inkscape:guide-bbox="true"
     inkscape:snap-page="true"
     inkscape:snap-global="true" /><g
     id="g4526"
     transform="translate(-36.928309,2.9133591)"
     style="fill:#494949;fill-opacity:1"><path
       id="path2"
       d="m 62.519774,3.396196 c -3.911225,-3.911225 -10.73529,-3.914255 -14.643232,0 l -4.41673,4.420265 V 3.6181435 h -3.15625 v 9.4745575 h 9.468497 V 9.9599335 h -3.963745 l 4.302853,-4.329365 c 2.718415,-2.721445 7.45885,-2.721445 10.177517,0.00328 1.359208,1.3592075 2.108123,3.16534 2.108123,5.1148935 0,1.900062 -0.748915,3.7067 -2.108123,5.068685 l -2.37956,2.376529 2.231595,2.231847 2.379308,-2.373753 c 1.954097,-1.960157 3.03303,-4.561412 3.03303,-7.303308 -2.53e-4,-2.793661 -1.078933,-5.395421 -3.033283,-7.3525485 z"
       style="fill:#494949;stroke-width:0.2525;fill-opacity:1"
       inkscape:connector-curvature="0" /><polygon
       transform="matrix(0.2525,0,0,0.2525,40.303562,0.461641)"
       id="polygon4"
       points="57.652,100 48.814,91.139 57.652,82.301 66.49,91.139 "
       style="fill:#494949;fill-opacity:1" /></g></svg>