<?xml version="1.0" encoding="UTF-8" standalone="no"?>
<!-- Generator: Adobe Illustrator 16.0.0, SVG Export Plug-In . SVG Version: 6.00 Build 0)  -->

<svg
   xmlns:dc="http://purl.org/dc/elements/1.1/"
   xmlns:cc="http://creativecommons.org/ns#"
   xmlns:rdf="http://www.w3.org/1999/02/22-rdf-syntax-ns#"
   xmlns:svg="http://www.w3.org/2000/svg"
   xmlns="http://www.w3.org/2000/svg"
   xmlns:sodipodi="http://sodipodi.sourceforge.net/DTD/sodipodi-0.dtd"
   xmlns:inkscape="http://www.inkscape.org/namespaces/inkscape"
   version="1.1"
   id="Capa_1"
   x="0px"
   y="0px"
   width="32"
   height="32"
   viewBox="0 0 32 32"
   xml:space="preserve"
   sodipodi:docname="redo.svg"
   inkscape:version="0.92.1 r15371"><metadata
     id="metadata51"><rdf:RDF><cc:Work
         rdf:about=""><dc:format>image/svg+xml</dc:format><dc:type
           rdf:resource="http://purl.org/dc/dcmitype/StillImage" /><dc:title></dc:title></cc:Work></rdf:RDF></metadata><defs
     id="defs49" /><sodipodi:namedview
     pagecolor="#ffffff"
     bordercolor="#666666"
     borderopacity="1"
     objecttolerance="10"
     gridtolerance="10"
     guidetolerance="10"
     inkscape:pageopacity="0"
     inkscape:pageshadow="2"
     inkscape:window-width="1920"
     inkscape:window-height="1137"
     id="namedview47"
     showgrid="false"
     inkscape:snap-bbox="true"
     inkscape:bbox-paths="true"
     inkscape:bbox-nodes="true"
     inkscape:snap-bbox-edge-midpoints="true"
     inkscape:snap-bbox-midpoints="true"
     inkscape:object-paths="true"
     inkscape:snap-intersection-paths="true"
     inkscape:snap-midpoints="true"
     inkscape:snap-smooth-nodes="true"
     inkscape:zoom="8.0000004"
     inkscape:cx="31.893052"
     inkscape:cy="8.0787702"
     inkscape:window-x="1912"
     inkscape:window-y="-8"
     inkscape:window-maximized="1"
     inkscape:current-layer="Capa_1"
     showguides="true"
     inkscape:guide-bbox="true"
     inkscape:snap-page="true"
     inkscape:snap-global="true" /><g
     id="g4526"
     transform="translate(-80.448675,6.9018151)"
     style="fill:#494949;fill-opacity:1"><path
       style="fill:#494949;fill-opacity:1;stroke-width:0.2525"
       d="M 17.201172,0.90039062 14.876953,3 17.552734,5.6777344 v 0.017578 H 16 c -4.163706,0 -7.9281032,2.5145655 -9.5214844,6.3613286 -0.3983453,0.96169 -0.6410558,1.959702 -0.7363281,2.96289 -0.2858168,3.009564 0.7625646,6.059439 2.9707031,8.267578 2.9441844,2.944185 7.3837064,3.827756 11.2304684,2.234375 C 23.790122,23.928102 26.304688,20.163706 26.304688,16 V 14.447266 H 23.201172 V 16 c 0,2.916768 -1.75057,5.536145 -4.445313,6.652344 -2.694742,1.116199 -5.785189,0.50192 -7.847656,-1.560547 C 8.8457369,19.02933 8.2314575,15.938883 9.3476562,13.244141 10.463855,10.549398 13.083232,8.7988281 16,8.7988281 h 1.552734 v 0.019531 l -2.675781,2.6757819 2.115235,2.341797 6.572265,-6.5722664 z"
       transform="translate(80.448306,-4.5043493)"
       id="path2"
       inkscape:connector-curvature="0" /></g></svg>